<?xml version="1.0" standalone="no"?>
<!DOCTYPE svg PUBLIC "-//W3C//DTD SVG 20010904//EN"
 "http://www.w3.org/TR/2001/REC-SVG-20010904/DTD/svg10.dtd">
<svg version="1.0" xmlns="http://www.w3.org/2000/svg"
 width="500.000000pt" height="500.000000pt" viewBox="0 0 500.000000 500.000000"
 preserveAspectRatio="xMidYMid meet">
<metadata>
Created by potrace 1.14, written by Peter Selinger 2001-2017
</metadata>
<g transform="translate(0.000000,500.000000) scale(0.100000,-0.100000)"
fill="#000000" stroke="none">
<path d="M2398 4030 c-188 -58 -311 -217 -322 -416 -3 -52 14 -140 39 -207 5
-13 -11 -7 -63 23 -161 93 -360 152 -556 166 l-96 6 0 -225 0 -224 78 -8 c95
-9 96 -9 168 -30 364 -105 626 -430 649 -803 3 -53 8 -128 11 -167 45 -629
536 -1147 1169 -1234 71 -9 324 -7 380 4 112 21 148 30 212 51 394 129 717
442 852 828 30 84 47 146 57 206 2 14 6 34 9 45 2 11 7 62 10 113 l6 92 -225
0 -226 0 -1 -32 c-5 -208 -105 -443 -251 -590 -65 -66 -141 -128 -157 -128 -6
0 -11 -4 -11 -9 0 -11 -163 -86 -230 -105 -89 -25 -109 -28 -230 -32 -413 -13
-780 263 -891 671 -32 114 -32 335 0 450 71 262 248 474 494 591 97 45 249 83
345 84 l32 0 0 226 0 226 -88 -6 c-49 -4 -98 -8 -109 -10 -11 -3 -38 -7 -58
-10 -120 -19 -321 -95 -424 -160 -31 -20 -41 -23 -41 -12 0 8 4 17 8 20 25 15
43 169 30 251 -42 261 -319 433 -570 355z m219 -254 c42 -21 89 -80 100 -125
18 -70 3 -127 -47 -184 -97 -111 -285 -72 -333 68 -45 135 60 272 199 261 28
-2 64 -11 81 -20z"/>
<path d="M54 2160 c19 -266 114 -520 273 -730 53 -70 178 -195 246 -245 34
-25 69 -51 78 -58 24 -18 56 -37 144 -82 107 -56 243 -100 405 -131 8 -2 57
-6 108 -10 l92 -6 0 226 0 226 -32 1 c-222 7 -437 101 -601 263 -160 159 -263
392 -266 604 l-1 32 -226 0 -226 0 6 -90z"/>
</g>
</svg>
